<svg width="200" height="200" viewBox="0 0 200 200" fill="none" xmlns="http://www.w3.org/2000/svg">
  <circle cx="100" cy="100" r="95" stroke="black" stroke-width="3" />

  <rect x="55" y="80" width="90" height="65" stroke="black" stroke-width="2.5" fill="white"/>
  <line x1="50" y1="145" x2="150" y2="145" stroke="black" stroke-width="2.5" stroke-linecap="round" />

  <path d="M52 80 L148 80 L140 50 L60 50 Z" stroke="black" stroke-width="2.5" fill="white" stroke-linejoin="round"/>
  
  <line x1="77" y1="50" x2="74" y2="80" stroke="black" stroke-width="2" />
  <line x1="100" y1="50" x2="100" y2="80" stroke="black" stroke-width="2" />
  <line x1="123" y1="50" x2="126" y2="80" stroke="black" stroke-width="2" />
  
  <path d="M52 80 Q58 88 64 80 Q70 88 76 80 Q82 88 88 80 Q94 88 100 80 Q106 88 112 80 Q118 88 124 80 Q130 88 136 80 Q142 88 148 80" stroke="black" stroke-width="2.5" fill="white" stroke-linecap="round"/>

  <circle cx="100" cy="115" r="18" stroke="black" stroke-width="2.5" />
  <path d="M96 107 L108 115 L96 123 Z" fill="none" stroke="black" stroke-width="2.5" stroke-linejoin="round"/>

  <text x="100" y="170" font-family="Arial, sans-serif" font-size="20" font-weight="500" text-anchor="middle" fill="#333">Event</text>
</svg>